<svg xmlns="http://www.w3.org/2000/svg" width="249" height="102" viewBox="0 0 249 102">
    <path d="M4.85156,40.80859C7.78906,30.0625,20.02734,27.50781,31.293,27.19141a156.63835,156.63835,0,0,1,19.58984.96484L46.03125,45.90234a156.69911,156.69911,0,0,0-19.58984-.96484C15.17578,45.25391,2.9375,47.80859,0,58.55469Z" style="fill:#0190ff"/>
    <path d="M108.32422,32.05469,96.85547,73.99219h9.63672l4.24609-15.53125h8.3711c9.23828,0,15.36718-5.09766,17.02343-12.1875,1.54688-6.61719-2.3164-14.21875-12.66406-14.21875Zm8.28516,4.93359h3.707c3.8789,0,6.957,3.10547,6.21484,8.51172-.69141,5.01172-6.12891,8.01562-10.87109,8.01562h-3.56641Zm91.38671,8.1211c-8.10156,0-13.94921,6.97265-15.35156,13.9414-1.34765,6.69922,2.49219,15.59766,13.0625,15.59766,7.51172,0,11.28906-3.3086,11.28906-3.3086l-1.73047-4.26953a13.052,13.052,0,0,1-7.55859,2.57031c-4.39844,0-7.16015-3.47265-6.55078-9.01171h17.97266C220.41016,57.36719,221.11328,45.10938,207.99609,45.10938Zm-.03515,4.6289c5.02734,0,3.88281,6.64063,3.88281,6.64063l-10.07031-.02344S203.44531,49.73828,207.96094,49.73828ZM140,44.05078l-15.84375,57.9375h9.24609l14.04688-51.37109h9.60156l-6.39062,23.375h9.24218l7.66407-28.03125H148.72266c.96484-3.53516,1.99609-7.29688,2.83593-10.36719,1.55079-5.668,4.082-9.78516,7.76172-9.64844,4.07031.15625,2,2.82813,1.44141,4.86719-.76953,2.81641,1.3125,5.65234,4.957,5.65234,7.92187,0,9.875-14.55078-4.957-14.55078S142.12891,36.27734,140,44.05078Zm31.05078,1.91016-1.27344,4.65625h11.71485l-18.418,23.375h26.01172l1.27344-4.65625H177.14062l18.42188-23.375Zm72.76563-.47266c-6.02735,0-9.582,6.22656-9.582,6.22656l1.57421-5.7539h-9.2461l-7.66405,28.03125h9.24218s2.22657-8.19141,3.35938-12.27735c1.75-6.39453,5.31641-10.39453,7.03125-10.55859,1.98047-.19141,1.793,4.58594,5.65624,4.58594C250.05078,55.74219,251.31641,45.48828,243.81641,45.48828Z" style="fill:#2b01be"/>
    <path d="M75.16406,74.05859c-33.14844-2.0664-71.67187-19.17187-70.3125-33.25L.27734,57.53516C-1.10938,71.89844,34.625,88.94922,70.3125,91.80469Zm12.04688-23.0625c-2.9375,10.7461-15.17578,13.30079-26.44141,13.61719a156.699,156.699,0,0,1-19.58984-.96484l4.85156-17.7461a156.6981,156.6981,0,0,0,19.58984.96485C76.88672,46.55078,89.125,43.99609,92.0625,33.25Z" style="fill:#2b01be"/>
    <path d="M16.89844,17.74609c33.14844,2.06641,71.67187,19.17188,70.3125,33.25l4.57422-16.72656C93.17188,19.90625,57.4375,2.85547,21.75,0Z" style="fill:#0190ff"/>
</svg>
